<?xml version="1.0" encoding="UTF-8" standalone="no"?>
<!-- Created with Inkscape (http://www.inkscape.org/) -->

<svg
   width="140"
   height="24.724001"
   viewBox="0 0 37.041666 6.5415586"
   version="1.1"
   id="svg1"
   inkscape:export-filename="LogoTextoSolo.png"
   inkscape:export-xdpi="96"
   inkscape:export-ydpi="96"
   inkscape:version="1.4.2 (f4327f4, 2025-05-13)"
   sodipodi:docname="Texto.svg"
   xmlns:inkscape="http://www.inkscape.org/namespaces/inkscape"
   xmlns:sodipodi="http://sodipodi.sourceforge.net/DTD/sodipodi-0.dtd"
   xmlns:xlink="http://www.w3.org/1999/xlink"
   xmlns="http://www.w3.org/2000/svg"
   xmlns:svg="http://www.w3.org/2000/svg">
  <sodipodi:namedview
     id="namedview1"
     pagecolor="#ffffff"
     bordercolor="#000000"
     borderopacity="0.25"
     inkscape:showpageshadow="2"
     inkscape:pageopacity="0.0"
     inkscape:pagecheckerboard="0"
     inkscape:deskcolor="#d1d1d1"
     inkscape:document-units="mm"
     inkscape:zoom="2.0334082"
     inkscape:cx="33.687285"
     inkscape:cy="152.6993"
     inkscape:window-width="1920"
     inkscape:window-height="1009"
     inkscape:window-x="-8"
     inkscape:window-y="-8"
     inkscape:window-maximized="1"
     inkscape:current-layer="layer1" />
  <defs
     id="defs1">
    <linearGradient
       inkscape:collect="always"
       xlink:href="#linearGradient6"
       id="linearGradient7"
       x1="127.94576"
       y1="115.2886"
       x2="92.434181"
       y2="48.501045"
       gradientUnits="userSpaceOnUse" />
    <linearGradient
       id="linearGradient6"
       inkscape:collect="always">
      <stop
         style="stop-color:#981cca;stop-opacity:0.99607843;"
         offset="0.47104248"
         id="stop6" />
      <stop
         style="stop-color:#ffffff;stop-opacity:1;"
         offset="0.61196911"
         id="stop7" />
    </linearGradient>
    <inkscape:path-effect
       effect="bend_path"
       id="path-effect7"
       is_visible="true"
       lpeversion="1"
       bendpath="M 72.469182,81.894823 H 94.614727 148.31075"
       prop_scale="1"
       scale_y_rel="false"
       vertical="false"
       hide_knot="false"
       bendpath-nodetypes="ccc" />
    <inkscape:path-effect
       effect="clone_original"
       css_properties=""
       attributes="style,clip-path,mask"
       linkeditem=""
       is_visible="true"
       method="d"
       allow_transforms="true"
       id="path-effect9"
       lpeversion="1" />
    <inkscape:path-effect
       effect="bend_path"
       id="path-effect10"
       is_visible="true"
       lpeversion="1"
       bendpath="M 86.017004,82.105755 H 148.21075"
       prop_scale="1"
       scale_y_rel="false"
       vertical="false"
       hide_knot="false" />
    <linearGradient
       inkscape:collect="always"
       xlink:href="#linearGradient6"
       id="linearGradient1"
       gradientUnits="userSpaceOnUse"
       x1="127.94576"
       y1="115.2886"
       x2="92.434181"
       y2="48.501045" />
    <linearGradient
       inkscape:collect="always"
       xlink:href="#linearGradient6"
       id="linearGradient2"
       gradientUnits="userSpaceOnUse"
       x1="127.94576"
       y1="115.2886"
       x2="92.434181"
       y2="48.501045" />
  </defs>
  <g
     inkscape:label="Capa 1"
     inkscape:groupmode="layer"
     id="layer1">
    <g
       id="g15"
       style="display:inline;fill:url(#linearGradient7);fill-opacity:1"
       transform="matrix(0.48969042,0,0,0.48969042,-35.438495,-36.832331)"
       inkscape:path-effect="#path-effect7">
      <path
         style="display:inline;fill:url(#linearGradient1);fill-opacity:1;stroke-width:0.249947"
         d="m 78.51941,86.623222 c 0,-1.950878 0,-1.950878 0.429853,-1.950878 0.429858,0 0.429858,0 0.429858,1.950878 0,1.95088 0,1.95088 -0.429858,1.95088 -0.429853,0 -0.429853,0 -0.429853,-1.95088 z m -1.464533,0.536455 C 76.195216,86.856226 75.3395,86.25763 74.702508,85.514128 74.30117,85.045686 73.691813,83.896614 73.691813,83.608255 c 0,-0.192409 0,-0.192409 0.624104,-0.192409 0.624105,0 0.624105,10e-7 0.828979,0.416161 0.42068,0.854519 1.203443,1.620385 2.015453,1.971948 0.364832,0.157954 0.364832,0.157954 0.365961,0.835803 5e-4,0.372812 -0.0063,0.677216 -0.01539,0.67645 -0.0091,-7.5e-4 -0.214307,-0.0712 -0.456028,-0.156531 z m 3.382346,-0.558745 c 0,-0.664876 0,-0.664876 0.479454,-0.915126 0.633907,-0.330867 1.39215,-1.082958 1.704897,-1.691066 0.229449,-0.446141 0.229449,-0.446142 0.911753,-0.446385 0.795669,-2.5e-4 0.769451,-0.06416 0.339196,0.826398 -0.534658,1.106657 -1.378921,1.962841 -2.476393,2.511358 -0.327351,0.16361 -0.67702,0.315973 -0.777046,0.338586 -0.181861,0.04111 -0.181861,0.04111 -0.181861,-0.623765 z m -1.987121,-3.664764 c -0.864059,-0.582289 -0.476399,-1.901566 0.558542,-1.900807 0.621452,4.5e-4 1.031296,0.407714 1.031296,1.02479 0,0.617076 -0.409844,1.024334 -1.031296,1.024789 -0.240851,1.78e-4 -0.400696,-0.04239 -0.558542,-0.148772 z m 3.222556,-0.48927 c -0.02479,-0.02479 -0.04507,-0.233986 -0.04507,-0.464884 0,-0.419817 0,-0.419817 1.96741,-0.4023 1.967412,0.01751 1.967412,0.01751 1.967412,0.447372 0,0.429854 0,0.429855 -1.922344,0.447366 -1.057288,0.0097 -1.942624,-0.0028 -1.967411,-0.02756 z M 72.369182,81.99402 c 0,-0.429855 0,-0.429854 1.95088,-0.429854 1.950878,0 1.950878,-10e-7 1.950878,0.429854 0,0.429855 0,0.429855 -1.950878,0.429855 -1.95088,0 -1.95088,0 -1.95088,-0.429855 z m 1.2565,-1.387252 c 0,-0.228223 0.293057,-0.983156 0.537668,-1.385075 0.611865,-1.005342 1.332346,-1.668566 2.339051,-2.153167 1.023287,-0.492584 0.958906,-0.512411 0.958906,0.295302 0,0.681009 0,0.681009 -0.281059,0.793427 -0.410844,0.164332 -1.047077,0.639371 -1.426525,1.065102 -0.285071,0.319843 -0.710896,1.054121 -0.830738,1.432502 -0.03154,0.09956 -0.124724,0.115733 -0.666979,0.115733 -0.626709,0 -0.630324,-9.49e-4 -0.630324,-0.163819 z m 9.031833,-0.547377 c -0.340149,-0.671063 -1.131358,-1.471801 -1.773903,-1.795266 -0.446389,-0.224716 -0.446389,-0.224716 -0.446389,-0.906268 0,-0.681554 0,-0.681554 0.247994,-0.591497 1.197623,0.434907 2.21449,1.22844 2.866834,2.237191 0.258412,0.399601 0.654667,1.286234 0.654667,1.464848 0,0.08722 -0.102924,0.103759 -0.644783,0.103509 -0.644781,-2.74e-4 -0.644781,-2.74e-4 -0.90442,-0.512517 z m -4.138105,-2.89297 c 0,-1.950878 0,-1.950878 0.429853,-1.950878 0.429858,0 0.429858,0 0.429858,1.950878 0,1.95088 0,1.950879 -0.429858,1.950879 -0.429853,0 -0.429853,10e-7 -0.429853,-1.950879 z"
         id="path15-8"
         inkscape:original-d="m 78.61941,86.623223 c 0,-1.950878 0,-1.950878 0.429853,-1.950878 0.429858,0 0.429858,0 0.429858,1.950878 0,1.95088 0,1.95088 -0.429858,1.95088 -0.429853,0 -0.429853,0 -0.429853,-1.95088 z m -1.464533,0.536454 C 76.295216,86.856227 75.4395,86.25763 74.802508,85.514129 74.40117,85.045686 73.791813,83.896615 73.791813,83.608256 c 0,-0.192409 0,-0.192409 0.624104,-0.192409 0.624105,0 0.624105,0 0.828979,0.41616 0.42068,0.854519 1.203443,1.620386 2.015453,1.971948 0.364832,0.157954 0.364832,0.157954 0.365961,0.835803 5e-4,0.372813 -0.0063,0.677217 -0.01539,0.67645 -0.0091,-7.49e-4 -0.214307,-0.0712 -0.456028,-0.156531 z m 3.382346,-0.558744 c 0,-0.664877 0,-0.664877 0.479454,-0.915126 0.633907,-0.330867 1.39215,-1.082958 1.704897,-1.691066 0.229449,-0.446142 0.229449,-0.446142 0.911753,-0.446385 0.795669,-2.5e-4 0.769451,-0.06416 0.339196,0.826398 -0.534658,1.106657 -1.378921,1.962841 -2.476393,2.511358 -0.327351,0.16361 -0.67702,0.315973 -0.777046,0.338586 -0.181861,0.04111 -0.181861,0.04111 -0.181861,-0.623765 z m -1.987121,-3.664764 c -0.864059,-0.582289 -0.476399,-1.901566 0.558542,-1.900807 0.621452,4.5e-4 1.031296,0.407714 1.031296,1.02479 0,0.617076 -0.409844,1.024334 -1.031296,1.024789 -0.240851,1.78e-4 -0.400696,-0.04239 -0.558542,-0.148772 z m 3.222556,-0.48927 c -0.02479,-0.02479 -0.04507,-0.233986 -0.04507,-0.464884 0,-0.419817 0,-0.419817 1.96741,-0.4023 1.967412,0.01751 1.967412,0.01751 1.967412,0.447372 0,0.429854 0,0.429854 -1.922344,0.447366 -1.057288,0.0097 -1.942624,-0.0028 -1.967411,-0.02756 z M 72.469182,81.99402 c 0,-0.429854 0,-0.429854 1.95088,-0.429854 1.950878,0 1.950878,0 1.950878,0.429854 0,0.429855 0,0.429855 -1.950878,0.429855 -1.95088,0 -1.95088,0 -1.95088,-0.429855 z m 1.2565,-1.387251 c 0,-0.228223 0.293057,-0.983157 0.537668,-1.385076 0.611865,-1.005341 1.332346,-1.668566 2.339051,-2.153167 1.023287,-0.492584 0.958906,-0.512411 0.958906,0.295302 0,0.681009 0,0.681009 -0.281059,0.793427 -0.410844,0.164332 -1.047077,0.639372 -1.426525,1.065103 -0.285071,0.319842 -0.710896,1.054121 -0.830738,1.432501 -0.03154,0.09956 -0.124724,0.115733 -0.666979,0.115733 -0.626709,0 -0.630324,-9.49e-4 -0.630324,-0.163819 z m 9.031833,-0.547378 c -0.340149,-0.671063 -1.131358,-1.471801 -1.773903,-1.795266 -0.446389,-0.224716 -0.446389,-0.224716 -0.446389,-0.906268 0,-0.681554 0,-0.681554 0.247994,-0.591497 1.197623,0.434907 2.21449,1.22844 2.866834,2.237191 0.258412,0.399601 0.654667,1.286235 0.654667,1.464848 0,0.08722 -0.102924,0.103759 -0.644783,0.103509 -0.644781,-2.74e-4 -0.644781,-2.74e-4 -0.90442,-0.512517 z M 78.61941,77.166422 c 0,-1.950878 0,-1.950878 0.429853,-1.950878 0.429858,0 0.429858,0 0.429858,1.950878 0,1.950879 0,1.950879 -0.429858,1.950879 -0.429853,0 -0.429853,0 -0.429853,-1.950879 z" />
      <path
         d="m 94.440323,87.447173 -3.274491,-3.911609 h 2.326222 l 1.122673,1.331411 1.825851,2.16533 v 0.414868 h -1.825851 z m -8.623319,0 V 76.793966 c 2.889256,0 5.778513,0 8.667769,0 0.04381,0 0.08713,0.0013 0.129954,0.004 0.314368,0.0198 0.601957,0.112292 0.862765,0.277471 0.306212,0.177801 0.548218,0.419807 0.726018,0.726018 0.187679,0.296334 0.281518,0.62724 0.281518,0.992719 v 2.933707 c 0,0.355601 -0.09384,0.686507 -0.281518,0.992719 -0.1778,0.306211 -0.419806,0.548217 -0.726018,0.726018 -0.260808,0.156485 -0.548397,0.244108 -0.862765,0.262868 -0.04282,0.0026 -0.08614,0.0038 -0.129954,0.0038 -2.296588,0.0049 -4.593177,0.0099 -6.889765,0.01482 v 3.718992 z m 2.044704,-5.526629 h 6.563798 c 0.06915,0 0.128412,-0.02469 0.177801,-0.07408 0.0039,-0.0033 0.0077,-0.0066 0.01142,-0.01004 0,0 0,0 0,0 0.05165,-0.04794 0.07748,-0.108803 0.07748,-0.182578 v -2.815173 c 0,-0.06455 -0.02583,-0.120493 -0.07748,-0.167826 0,0 0,0 0,0 -0.0037,-0.0034 -0.0075,-0.0067 -0.01142,-0.01 -0.04939,-0.05927 -0.108654,-0.0889 -0.177801,-0.0889 h -6.563798 c -0.06914,0 -0.13335,0.02963 -0.192617,0.0889 -0.04939,0.04939 -0.07408,0.108653 -0.07408,0.1778 v 2.815173 c 0,0.07902 0.02469,0.143228 0.07408,0.192617 0.05927,0.04939 0.123472,0.07408 0.192617,0.07408 z m 10.223535,5.526629 V 76.779149 h 8.238087 c 0.36548,0 0.69639,0.0889 0.99272,0.266701 0.30621,0.1778 0.54822,0.419806 0.72602,0.726018 0.18767,0.306212 0.28151,0.642057 0.28151,1.007536 v 2.118788 c 0,0.138289 -0.0148,0.271639 -0.0444,0.400051 -0.0197,0.118533 -0.0543,0.232128 -0.10371,0.340784 0.1778,0.246945 0.31609,0.49389 0.41486,0.740835 0.10866,0.237067 0.16299,0.479073 0.16299,0.726018 v 2.341039 c 0,0.365478 -0.0938,0.701323 -0.28152,1.007535 -0.1778,0.306212 -0.41981,0.548218 -0.72602,0.726018 -0.29633,0.177801 -0.62724,0.266701 -0.99272,0.266701 -2.88926,0 -5.77851,0 -8.667767,0 z m 2.044707,-1.792821 h 6.5638 c 0.0691,0 0.12841,-0.02469 0.1778,-0.07408 0.0593,-0.04939 0.0889,-0.113592 0.0889,-0.192617 v -2.207689 c 0,-0.07902 -0.0296,-0.143228 -0.0889,-0.192617 -0.0494,-0.04939 -0.10867,-0.07408 -0.1778,-0.07408 h -6.5638 c -0.0691,0 -0.133354,0.02469 -0.192621,0.07408 -0.0494,0.04939 -0.0741,0.113592 -0.0741,0.192617 v 2.207689 c 0,0.07902 0.0247,0.143228 0.0741,0.192617 0.05927,0.04939 0.123471,0.07408 0.192621,0.07408 z m 0,-4.53391 h 6.1193 c 0.079,0 0.14322,-0.02469 0.19261,-0.07408 0.0494,-0.05927 0.0741,-0.123472 0.0741,-0.192617 v -2.015072 c 0,-0.07902 -0.0247,-0.143228 -0.0741,-0.192617 -0.0494,-0.04939 -0.1136,-0.07408 -0.19261,-0.07408 h -6.1193 c -0.0691,0 -0.133354,0.02469 -0.192621,0.07408 -0.0494,0.04939 -0.0741,0.113592 -0.0741,0.192617 v 2.015072 c 0,0.06914 0.0247,0.13335 0.0741,0.192617 0.05927,0.04939 0.123471,0.07408 0.192621,0.07408 z m 10.11982,6.326731 V 76.779149 h 1.76318 v 10.668024 z m 7.35709,0 V 78.57197 h -4.44501 v -1.792821 h 10.66802 v 1.792821 h -4.44501 v 8.875203 z m 7.36391,0 v -8.667769 c 0,-0.365479 0.0889,-0.701324 0.2667,-1.007536 0.1778,-0.306212 0.41981,-0.548218 0.72602,-0.726018 0.30621,-0.177801 0.64206,-0.266701 1.00754,-0.266701 h 6.66751 c 0.36548,0 0.69639,0.0889 0.99272,0.266701 0.30621,0.1778 0.54822,0.419806 0.72602,0.726018 0.18768,0.306212 0.28152,0.642057 0.28152,1.007536 v 8.667769 h -1.79282 v -3.659725 h -7.0972 v 3.659725 z m 1.77801,-5.437729 h 7.0972 V 78.83867 c 0,-0.07902 -0.0296,-0.143228 -0.0889,-0.192617 -0.0494,-0.04939 -0.10867,-0.07408 -0.17781,-0.07408 h -6.56379 c -0.0691,0 -0.13335,0.02469 -0.19262,0.07408 -0.0494,0.04939 -0.0741,0.113592 -0.0741,0.192617 v 3.170774 z m 10.59394,5.437729 V 76.764332 h 1.77801 v 8.89002 h 8.89002 v 1.792821 z"
         id="use9"
         class="fromclone"
         style="font-size:14.8167px;line-height:0px;font-family:Onyx;-inkscape-font-specification:Onyx;text-align:start;writing-mode:lr-tb;direction:ltr;text-anchor:start;display:inline;fill:url(#linearGradient2);fill-opacity:1;stroke:none;stroke-width:0.264583"
         inkscape:original-d="m 94.740324,87.447174 -3.274491,-3.911609 h 2.326222 l 2.948524,3.496741 v 0.414868 z m -8.623319,0 V 76.793967 h 8.667769 q 0.548218,0 0.992719,0.281517 0.459318,0.266701 0.726018,0.726018 0.281518,0.444501 0.281518,0.992719 v 2.933707 q 0,0.533401 -0.281518,0.992719 -0.2667,0.459317 -0.726018,0.726018 -0.444501,0.266701 -0.992719,0.266701 l -6.889765,0.01482 v 3.718992 z m 2.044704,-5.526629 h 6.563798 q 0.103717,0 0.177801,-0.07408 0.0889,-0.07408 0.0889,-0.192617 v -2.815173 q 0,-0.103717 -0.0889,-0.1778 -0.07408,-0.0889 -0.177801,-0.0889 h -6.563798 q -0.103717,0 -0.192617,0.0889 -0.07408,0.07408 -0.07408,0.1778 v 2.815173 q 0,0.118534 0.07408,0.192617 0.0889,0.07408 0.192617,0.07408 z m 10.223535,5.526629 V 76.77915 h 8.238086 q 0.54822,0 0.99272,0.266701 0.45932,0.2667 0.72602,0.726018 0.28151,0.459318 0.28151,1.007536 v 2.118788 q 0,0.207433 -0.0444,0.400051 -0.0296,0.1778 -0.10371,0.340784 0.2667,0.370417 0.41486,0.740835 0.16299,0.3556 0.16299,0.726018 v 2.341039 q 0,0.548217 -0.28152,1.007535 -0.2667,0.459318 -0.72602,0.726018 -0.4445,0.266701 -0.99272,0.266701 h -8.667766 z m 2.044706,-1.792821 h 6.5638 q 0.10371,0 0.1778,-0.07408 0.0889,-0.07408 0.0889,-0.192617 v -2.207689 q 0,-0.118533 -0.0889,-0.192617 -0.0741,-0.07408 -0.1778,-0.07408 h -6.5638 q -0.10372,0 -0.19262,0.07408 -0.0741,0.07408 -0.0741,0.192617 v 2.207689 q 0,0.118533 0.0741,0.192617 0.0889,0.07408 0.19262,0.07408 z m 0,-4.53391 h 6.1193 q 0.11853,0 0.19261,-0.07408 0.0741,-0.0889 0.0741,-0.192617 v -2.015072 q 0,-0.118533 -0.0741,-0.192617 -0.0741,-0.07408 -0.19261,-0.07408 h -6.1193 q -0.10372,0 -0.19262,0.07408 -0.0741,0.07408 -0.0741,0.192617 v 2.015072 q 0,0.103716 0.0741,0.192617 0.0889,0.07408 0.19262,0.07408 z m 10.11982,6.326731 V 76.77915 h 1.76318 v 10.668024 z m 7.35709,0 v 0 -8.875203 h -4.44501 V 76.77915 h 10.66802 v 1.792821 h -4.44501 v 8.875203 z m 7.36391,0 v -8.667769 q 0,-0.548218 0.2667,-1.007536 0.2667,-0.459318 0.72602,-0.726018 0.45932,-0.266701 1.00754,-0.266701 h 6.66751 q 0.54822,0 0.99272,0.266701 0.45932,0.2667 0.72602,0.726018 0.28152,0.459318 0.28152,1.007536 v 8.667769 h -1.79282 v -3.659725 h -7.0972 v 3.659725 z m 1.77801,-5.437729 h 7.0972 v -3.170774 q 0,-0.118533 -0.0889,-0.192617 -0.0741,-0.07408 -0.17781,-0.07408 h -6.56379 q -0.10372,0 -0.19262,0.07408 -0.0741,0.07408 -0.0741,0.192617 v 3.170774 z m 10.59394,5.437729 V 76.764333 h 1.77801 v 8.89002 h 8.89002 v 1.792821 z"
         inkscape:path-effect="#path-effect9;#path-effect10" />
    </g>
  </g>
</svg>
